<svg width="48" height="48" viewBox="0 0 48 48" fill="none" xmlns="http://www.w3.org/2000/svg">
<path d="M27.3047 10.095C19.2047 7.14318 7.35471 1.74854 7.35471 1.74854C6.51364 1.5289 6.39578 2.34318 6.39578 2.34318C6.12792 5.6164 8.19578 10.9414 9.26721 12.136C10.3333 13.3307 26.3618 18.2271 26.3618 18.2271C26.3618 18.2271 14.0351 15.7414 11.0619 14.8843C8.08328 14.0271 9.03149 15.8378 9.03149 15.8378C9.64221 19.1432 12.5083 22.8985 14.7743 23.2521C17.0351 23.6057 26.5654 23.4664 26.5654 23.4664C26.5654 23.4664 24.6636 23.686 21.5726 24.1039C19.2851 24.4146 16.3761 24.7735 15.6208 25.0575C13.8476 25.7271 16.9065 28.411 16.9065 28.411C21.444 32.5253 23.8547 31.1164 23.8547 31.1164C25.6386 30.5432 27.144 30.1253 28.419 29.82L26.8386 36.3771H31.3708L28.8743 46.2825L39.8726 31.7164H34.1136L35.3083 29.6432C35.3243 29.67 35.3297 29.686 35.3297 29.686C35.3297 29.686 39.4172 23.145 40.9815 19.8075L41.0136 19.7539H41.0083C41.2761 19.1753 41.469 18.6985 41.544 18.3718C42.4547 14.5521 35.4101 13.0468 27.3047 10.095Z" fill="black" fill-opacity="0.45"/>
</svg>
