<svg width="36" height="36" viewBox="0 0 36 36" fill="none" xmlns="http://www.w3.org/2000/svg">
<g clip-path="url(#clip0_1_6467)">
<path d="M27.3207 -0.0876465H8.67787C7.25957 -0.0876465 6.10645 1.06548 6.10645 2.48378V33.3409C6.10645 34.7592 7.25957 35.9124 8.67787 35.9124H27.3207C28.739 35.9124 29.8922 34.7592 29.8922 33.3409V2.48378C29.8922 1.06548 28.739 -0.0876465 27.3207 -0.0876465ZM26.9993 33.0195H8.9993V2.80521H26.9993V33.0195ZM16.3922 28.9213C16.3922 29.3475 16.5615 29.7563 16.8629 30.0577C17.1643 30.3591 17.5731 30.5284 17.9993 30.5284C18.4255 30.5284 18.8343 30.3591 19.1357 30.0577C19.4371 29.7563 19.6064 29.3475 19.6064 28.9213C19.6064 28.495 19.4371 28.0863 19.1357 27.7849C18.8343 27.4835 18.4255 27.3141 17.9993 27.3141C17.5731 27.3141 17.1643 27.4835 16.8629 27.7849C16.5615 28.0863 16.3922 28.495 16.3922 28.9213Z" fill="black" fill-opacity="0.45"/>
</g>
<defs>
<clipPath id="clip0_1_6467">
<rect width="36" height="36" fill="white"/>
</clipPath>
</defs>
</svg>
