<svg
  xmlns="http://www.w3.org/2000/svg"
  viewBox="0 0 48 48"
  fill="currentColor"
  class="w-12 h-12"
>
  <path d="M43.2 7.4c-2.2.9-5 1.6-7.3 1.9-4.2.6-7.9.3-11.2-.6-.8-.2-1.7.1-2.1.9-1.5 2.8-2.7 5.5-4.5 8.1-.4.6-.2 1.4.3 1.9 1.6 1.4 3.5 2.4 5.7 3.2.5.2.6.8.2 1.2-1.9 2-4.1 3.8-6.5 5.4-.6.4-1.3 1.2-1.5 1.9-.2.8.4 1.6 1.2 1.8 2.1.5 4.4.7 6.8.6.5 0 .8.6.5 1-2.2 3.3-4.4 6.2-7.3 9.2-.5.5-.1 1.4.6 1.3 6.4-.8 11.8-3.3 16.1-7.5 4.6-4.4 7.5-9.8 8.7-16.1.5-2.5.6-5.1.2-7.8-.2-1.7-1.1-3.1-2.1-4.4-.8-1.2-1.8-2.1-3.2-2.9-.4-.2-.3-.8.1-.9 2.2-.7 4.4-1.8 6.4-3.2.5-.4.2-1.1-.4-.9z"/>
</svg>
